<svg xmlns="http://www.w3.org/2000/svg" viewBox="0 0 320 180" fill="none" aria-hidden="true">
  <defs>
    <linearGradient id="g3" x1="0%" y1="50%" x2="100%" y2="50%">
      <stop offset="0%" style="stop-color:#3db8e8"/>
      <stop offset="50%" style="stop-color:#8b7fd4"/>
      <stop offset="100%" style="stop-color:#c94b8f"/>
    </linearGradient>
  </defs>
  <rect width="320" height="180" rx="16" fill="rgba(15,8,18,0.5)"/>
  <path stroke="url(#g3)" stroke-width="2.5" stroke-linecap="round" d="M56 124h208v24H56zM72 124V96c0-18 14-32 32-32h112c18 0 32 14 32 32v28"/>
  <ellipse cx="104" cy="132" rx="22" ry="8" fill="#c94b8f" opacity="0.35"/>
  <path fill="#b85a7a" opacity="0.5" d="M228 100c8 0 14 10 12 18l-6 22h-32l-6-22c-2-8 4-18 12-18h20z"/>
  <rect x="88" y="108" width="36" height="24" rx="4" stroke="#5ee0ff" stroke-width="2"/>
  <rect x="196" y="108" width="36" height="24" rx="4" stroke="#a59cff" stroke-width="2"/>
  <circle cx="106" cy="118" r="3" fill="#5ee0ff"/>
  <circle cx="214" cy="118" r="3" fill="#a59cff"/>
</svg>
